Coordinates
version=1
nRows=17
nColumns=24
inDegrees=yes

Units are S.I. units (second, meters, Newtons, ...)
Angles are in degrees.

endheader
time	pelvis_tilt	pelvis_list	pelvis_rotation	pelvis_tx	pelvis_ty	pelvis_tz	hip_flexion_r	hip_adduction_r	hip_rotation_r	knee_angle_r	ankle_angle_r	subtalar_angle_r	mtp_angle_r	hip_flexion_l	hip_adduction_l	hip_rotation_l	knee_angle_l	ankle_angle_l	subtalar_angle_l	mtp_angle_l	lumbar_extension	lumbar_bending	lumbar_rotation
      1.39600000	      2.01141581	      8.55236277	     -4.89496557	      0.24649300	      1.02114521	      0.31603604	     12.96292258	     -8.91378220	      3.47753169	    -62.80423831	      6.23091679	    -13.54022270	     -6.13060939	      5.68302089	     13.76711022	     -0.52349566	    -10.86560875	     -0.22847804	    -19.02620713	      1.53992221	     -4.67427914	    -10.90998641	      6.81145579
      1.40016667	      2.01909185	      8.44944237	     -4.75128845	      0.25149272	      1.02187030	      0.31593036	     13.39735748	     -8.75449641	      3.44417855	    -62.18902707	      6.47377111	    -13.48387776	     -6.14297543	      5.12368644	     13.70595960	     -0.25133208	    -10.47469543	     -0.17115199	    -19.06125840	      1.48001393	     -4.73768149	    -10.79630577	      6.45997879
      1.40433333	      1.99871025	      8.33322587	     -4.59355712	      0.25647372	      1.02252783	      0.31582846	     13.84460356	     -8.57585207	      3.40354523	    -61.52446174	      6.70569617	    -13.42056887	     -6.15235824	      4.60471477	     13.62186582	      0.01499709	    -10.10740545	     -0.10709693	    -19.06954710	      1.42400576	     -4.77353254	    -10.67623728	      6.17640410
      1.40850000	      2.00268446	      8.22606597	     -4.43410952	      0.26143578	      1.02317239	      0.31573967	     14.25568693	     -8.41275659	      3.35360649	    -60.82400507	      6.93758743	    -13.35331023	     -6.16135286	      4.05975782	     13.54471316	      0.28144139	     -9.73376227	     -0.05754480	    -19.07750924	      1.36180115	     -4.84297407	    -10.57139552	      5.86663101
      1.41266667	      1.99624001	      8.11929809	     -4.26674633	      0.26639658	      1.02377572	      0.31564262	     14.66360010	     -8.25456372	      3.29074802	    -60.08036923	      7.14874092	    -13.28027737	     -6.16829975	      3.52800209	     13.46346193	      0.54827851	     -9.36371413	      0.00639426	    -19.07811325	      1.30529986	     -4.89338941	    -10.46185179	      5.57259274
      1.41683333	      1.95535105	      8.00162013	     -4.09087859	      0.27134235	      1.02429924	      0.31556808	     15.09293395	     -8.07749414	      3.22685524	    -59.29505292	      7.36209127	    -13.22332211	     -6.16988608	      3.04965619	     13.35752742	      0.77498930	     -9.02311444	      0.05095238	    -19.01338909	      1.27578342	     -4.90905689	    -10.34157070	      5.37808624
      1.42100000	      1.97376235	      7.91628968	     -3.92382816	      0.27626387	      1.02483418	      0.31547554	     15.46137640	     -7.95418706	      3.15373328	    -58.49422072	      7.54159160	    -13.15951723	     -6.17763359	      2.48652115	     13.29778600	      1.08254535	     -8.63208876	      0.10839042	    -19.07514820	      1.20680284	     -5.00257861	    -10.26440406	      4.93394718
      1.42516667	      1.92949282	      7.80271356	     -3.73851369	      0.28119990	      1.02527338	      0.31539213	     15.86951573	     -7.79315167	      3.06785148	    -57.63738370	      7.72122630	    -13.09980139	     -6.17924574	      2.02132470	     13.18881469	      1.30461007	     -8.30675501	      0.16795153	    -19.01163587	      1.17834056	     -5.00876090	    -10.14260802	      4.75837417
      1.42933333	      1.93762771	      7.71689696	     -3.56133353	      0.28611160	      1.02571773	      0.31529452	     16.22222311	     -7.67933245	      2.97186946	    -56.76503153	      7.86145750	    -13.05465652	     -6.18613045	      1.47944952	     13.11879515	      1.59910492	     -7.93278470	      0.24464624	    -19.05920827	      1.11879330	     -5.08469625	    -10.05665340	      4.32932543
      1.43350000	      1.90700685	      7.62117930	     -3.37744541	      0.29100954	      1.02608285	      0.31521665	     16.60051120	     -7.54724924	      2.88005421	    -55.85385822	      8.00010389	    -13.02229022	     -6.19384178	      0.99534090	     13.02744778	      1.87114590	     -7.58741243	      0.29593307	    -19.07105767	      1.05572565	     -5.12031543	     -9.96320731	      4.00803938
      1.43766667	      1.86177088	      7.52740706	     -3.19282635	      0.29590300	      1.02637953	      0.31515054	     16.98396168	     -7.42077916	      2.78123679	    -54.91504384	      8.14549540	    -12.97560041	     -6.19680720	      0.54696481	     12.92858731	      2.08029023	     -7.27623777	      0.34781706	    -19.00091053	      1.02679126	     -5.13298871	     -9.86624900	      3.82569450
      1.44183333	      1.87082761	      7.44842403	     -3.01851204	      0.30077834	      1.02669298	      0.31508183	     17.30445004	     -7.32217925	      2.67491771	    -53.95506896	      8.22767069	    -12.97562579	     -6.20648450	      0.02113569	     12.85248352	      2.35656711	     -6.92377829	      0.43494605	    -19.03485664	      0.96955014	     -5.21323943	     -9.78969464	      3.41500499
      1.44600000	      1.82935993	      7.37139145	     -2.83615506	      0.30565454	      1.02690946	      0.31501490	     17.66531107	     -7.22233081	      2.57440075	    -52.96495857	      8.31655420	    -12.96481700	     -6.21802518	     -0.43352138	     12.77064797	      2.61688620	     -6.60146205	      0.48728894	    -19.05193779	      0.90495139	     -5.23447347	     -9.71839746	      3.08807661
      1.45016667	      1.76238638	      7.29531154	     -2.65628915	      0.31053259	      1.02703462	      0.31496398	     18.04513885	     -7.12669650	      2.46643670	    -51.95305997	      8.40374848	    -12.93650730	     -6.22377897	     -0.83860134	     12.68072492	      2.81084460	     -6.31883589	      0.55371720	    -18.98782492	      0.87627007	     -5.21757669	     -9.63815113	      2.91819233
      1.45433333	      1.75139492	      7.23308624	     -2.48906960	      0.31537784	      1.02718940	      0.31492664	     18.35959001	     -7.05195883	      2.36079017	    -50.92129669	      8.42789876	    -12.97941242	     -6.23882824	     -1.32182066	     12.61049326	      3.06792334	     -5.99471626	      0.64074465	    -19.01472900	      0.81816144	     -5.27737918	     -9.58461176	      2.52782570
      1.45850000	      1.67857581	      7.16756355	     -2.31171404	      0.32023868	      1.02722300	      0.31488131	     18.72371194	     -6.97589722	      2.24716707	    -49.85910561	      8.47233309	    -12.96733291	     -6.24813065	     -1.70772418	     12.52821647	      3.26846043	     -5.73241911	      0.71241859	    -18.97688838	      0.78492821	     -5.25238757	     -9.51554743	      2.33343121
      1.46266667	      1.61958829	      7.10335548	     -2.15206668	      0.32510322	      1.02722861	      0.31485975	     19.06975292	     -6.90386356	      2.13563599	    -48.78449846	      8.48674125	    -12.98579693	     -6.25781648	     -2.12055978	     12.44541744	      3.46885840	     -5.43995475	      0.80313556	    -18.92995527	      0.75916885	     -5.25977585	     -9.44603535	      2.12041786
